<svg xmlns="http://www.w3.org/2000/svg" width="64.242" height="37.334" viewBox="0 0 64.242 37.334"><defs><style>.a{fill:none;}.a,.c,.d{fill-rule:evenodd;}.b,.c{fill:#fff;}.d{fill:#f0f0f0;}</style></defs><path class="a" d="M0,0H52.623V37.333H0Z"/><g transform="translate(0 6.575)"><path class="b" d="M3280.938,1824.026c-1.039,0-1.746.834-1.746,2.117,0,1.219.668,2.066,1.694,2.066.989,0,1.746-.719,1.746-2.117,0-1.168-.616-2.053-1.694-2.053Zm-.026.5c.732,0,1.065.8,1.065,1.566,0,.86-.36,1.6-1.079,1.6-.693,0-1.065-.757-1.065-1.578C3279.834,1825.321,3280.168,1824.526,3280.912,1824.526Zm4.748-.449h-2.8v.526h1.09v3.529h.617V1824.6h1.091Zm1.989-.064c-1.039,0-1.745.835-1.745,2.117,0,1.219.667,2.066,1.693,2.066.988,0,1.746-.719,1.746-2.118,0-1.167-.616-2.053-1.695-2.053Zm-.026.5c.731,0,1.066.8,1.066,1.565,0,.86-.359,1.6-1.079,1.6-.693,0-1.065-.757-1.065-1.579C3286.545,1825.309,3286.879,1824.513,3287.623,1824.513Zm4.081,1.668a1.076,1.076,0,0,0,.732-1.026,1.054,1.054,0,0,0-.321-.8,1.657,1.657,0,0,0-1.156-.321,5.4,5.4,0,0,0-.987.09v4h.6v-1.72h.372c.424,0,.629.206.732.744a5.39,5.39,0,0,0,.257.975h.642a8.254,8.254,0,0,1-.308-1.1,1,1,0,0,0-.565-.822v-.026Zm-1.129-.243v-1.4a1.553,1.553,0,0,1,.424-.038c.436,0,.808.179.808.705a.735.735,0,0,1-.822.732Zm2.541,2.182h.616v-4.055h-.616Zm3.863-4.055h-2.8v.526h1.091v3.529h.616v-3.529h1.091Zm2.053,0h-.757l-1.245,4.055h.629l.347-1.194h1.244l.36,1.194h.642l-1.245-4.055Zm-.911,2.387.321-1.065c.064-.257.128-.552.192-.8h.013c.064.244.129.539.206.809l.321,1.065h-1.039Zm4.761-2.272a1.891,1.891,0,0,0-.847-.18,1.179,1.179,0,0,0-1.322,1.117c0,.552.411.91,1.014,1.155.488.2.693.41.693.757s-.27.616-.757.616a1.624,1.624,0,0,1-.873-.243l-.142.513a2.016,2.016,0,0,0,.975.244c.911,0,1.411-.514,1.411-1.181,0-.552-.308-.911-.962-1.193-.513-.219-.744-.4-.744-.732,0-.257.205-.539.68-.539a1.442,1.442,0,0,1,.719.18Zm-22.136,5.095h-.616v2.694c0,.719-.243.9-.654.9a1.078,1.078,0,0,1-.4-.064l-.077.513a1.638,1.638,0,0,0,.527.077c.706,0,1.219-.334,1.219-1.4v-2.72Zm2.5,0h-.758l-1.244,4.055h.629l.346-1.193h1.244l.36,1.193h.642l-1.245-4.055Zm-.911,2.386.32-1.065c.064-.257.128-.552.192-.8h.013c.064.244.128.539.205.808l.32,1.065h-1.039Zm4.76-2.271a1.89,1.89,0,0,0-.847-.18,1.179,1.179,0,0,0-1.322,1.116c0,.552.41.911,1.014,1.155.488.206.694.411.694.757s-.27.616-.757.616a1.629,1.629,0,0,1-.873-.244l-.141.514a2.016,2.016,0,0,0,.975.244c.911,0,1.412-.513,1.412-1.18,0-.552-.308-.911-.962-1.194-.513-.218-.744-.4-.744-.731,0-.257.205-.539.68-.539a1.445,1.445,0,0,1,.719.18Zm2.515-.128h-.757l-1.245,4.055h.629l.346-1.194h1.245l.36,1.194h.641l-1.244-4.055Zm-.911,2.386.321-1.065c.064-.257.128-.552.193-.8h.012c.064.244.128.539.2.809l.321,1.065h-1.04Zm-7.905,4.556,1.335-1.732h-.744l-1.04,1.45c-.09.141-.192.3-.3.449h-.013v-1.9h-.6v4.055h.6v-1.489l.333-.424,1.117,1.912h.719Zm4.017,1.809h-1.591v-1.348h1.424v-.513h-1.424v-1.181h1.5v-.513h-2.117v4.055h2.207v-.5Zm3.478-3.542h-.616v2.451c0,.809-.321,1.155-.821,1.155-.462,0-.8-.346-.8-1.155v-2.451h-.616v2.412c0,1.206.564,1.694,1.4,1.694.86,0,1.463-.513,1.463-1.707v-2.4Zm2.541,0h-.756l-1.246,4.055h.629l.347-1.193h1.244l.359,1.193h.642l-1.244-4.055Zm-.911,2.387.321-1.065c.064-.257.128-.552.192-.8h.013c.064.244.128.539.206.808l.321,1.065h-1.041Zm5.621-2.387h-.565v1.489c0,.642.013,1.168.065,1.72h-.013a12.8,12.8,0,0,0-.655-1.348l-1.064-1.873h-.668v4.055h.565V1837c0-.706-.013-1.232-.039-1.745h.026a11.251,11.251,0,0,0,.668,1.373l1.064,1.9h.616Zm3.76,1.874h-1.3v.488h.693v1.142a1.193,1.193,0,0,1-.539.09c-.8,0-1.347-.539-1.347-1.565a1.379,1.379,0,0,1,1.424-1.553,1.837,1.837,0,0,1,.808.154l.141-.5a2.256,2.256,0,0,0-.937-.167,1.964,1.964,0,0,0-2.079,2.092,1.853,1.853,0,0,0,1.977,2.041,3.374,3.374,0,0,0,1.155-.206Zm2.438-1.874h-.758l-1.245,4.055h.629l.346-1.193h1.245l.36,1.193h.642l-1.245-4.055Zm-.911,2.387.321-1.065c.064-.257.128-.552.192-.8h.013c.064.244.128.539.205.808l.32,1.065h-1.039Zm5.621-2.387h-.565v1.489c0,.642.013,1.168.064,1.72h-.013a12.889,12.889,0,0,0-.655-1.348l-1.065-1.873h-.667v4.055h.564V1837c0-.706-.012-1.232-.038-1.745h.026a11.314,11.314,0,0,0,.667,1.373l1.065,1.9h.616Z" transform="translate(-3242.208 -1814.198)"/><path class="b" d="M578.788,1785.5c-4.3,0-6.788,3.529-6.788,7.79,0,4.145,2.156,7.738,6.557,7.738a7.021,7.021,0,0,0,3.17-.694,8.81,8.81,0,0,0,2.618.694c2.849.167,4.992-1.143,4.992-5.365v-10.214H586.3V1795.7c0,2.143-.732,2.58-1.9,2.58a1.266,1.266,0,0,1-.372-.064,9.624,9.624,0,0,0,1.271-5.172c0-3.67-1.861-7.558-6.519-7.558Zm16.079,5.852,5.172-6.006L595.65,1785l-5.364,6.442v4.735l2.092-2.143,4.081,6.955,4.658-.025Zm-16.195-3.208c2.438,0,3.657,2.271,3.657,4.979,0,3.029-1.245,5.172-3.657,5.172s-3.76-2.131-3.734-5.108C574.939,1790.518,576.132,1788.144,578.673,1788.144Z" transform="translate(-569.947 -1775.699)"/><path class="b" d="M3040.6,1812.387h-.6V1796h.6Z" transform="translate(-3006.276 -1786.558)"/><path class="c" d="M653,1328.568a11.918,11.918,0,0,1,1.45,4.851c6.866-7.161,13.757-4.709,20.7-3.118,5.762.937,8.624-1.348,9.612-2.631-3.5,1.9-6.16,1.964-8.418,1.181-2.862-.089-7.584-3.94-14.013-4.632a9.94,9.94,0,0,0-9.33,4.337Z" transform="translate(-649.907 -1320.768)"/><path class="c" d="M412,1063.695c2.259,2.233,4.209,4.633,4.581,8.752,6.865-7.161,13.59-4.466,20.532-2.875,5.762.937,8.623-1.347,9.612-2.63-8.919,4.851-12.294-2.361-17.889-4.915-1.181-.654-9.445-4.516-16.824,1.656Z" transform="translate(-412 -1060.233)"/><path class="d" d="M656,1313.088a11.92,11.92,0,0,1,1.45,4.851c6.865-7.161,13.59-4.466,20.532-2.875,5.762.937,8.623-1.348,9.612-2.631-3.5,1.9-6.16,1.963-8.418,1.181-2.862-.09-7.584-3.94-14.013-4.633a9.519,9.519,0,0,0-9.15,4.106Z" transform="translate(-652.869 -1305.725)"/></g></svg>