<svg version="1.1" id="MOST_LOGO" xmlns="http://www.w3.org/2000/svg" xmlns:xlink="http://www.w3.org/1999/xlink" x="0px" y="0px" width="140px" viewBox="0 0 690.045 269.208" enable-background="new 0 0 690.045 269.208" xml:space="preserve">
                <g>
                <path fill="#1C4278" d="M423.099,82.363c3.82,10.142,5.732,21.242,5.732,33.292c0,11.905-1.912,22.93-5.732,33.071c-4.116,10.144-9.557,18.741-16.315,25.797c-3.528,3.527-7.352,6.69-11.465,9.48c-4.117,2.794-8.527,5.22-13.229,7.275c-9.849,3.824-20.212,5.733-31.088,5.733c-10.879,0-21.165-1.909-30.866-5.733c-9.557-3.968-17.787-9.553-24.694-16.756c-6.763-7.056-12.202-15.653-16.315-25.797c-3.824-10.142-5.733-21.166-5.733-33.071c0-12.05,1.909-23.15,5.733-33.292c3.968-9.846,9.404-18.3,16.315-25.355c6.907-6.908,15.138-12.272,24.694-16.096c9.26-3.672,19.547-5.512,30.866-5.512c11.317,0,21.608,1.84,30.868,5.512c4.851,1.912,9.332,4.227,13.449,6.945c4.113,2.722,7.937,5.771,11.465,9.151C413.69,64.063,419.13,72.517,423.099,82.363 M365.554,155.342c4.409-2.205,8.229-5.143,11.465-8.819c1.615-1.908,3.049-3.969,4.299-6.174c1.247-2.205,2.314-4.63,3.197-7.275c0.882-2.646,1.577-5.437,2.095-8.379c0.513-2.938,0.771-5.953,0.771-9.039c0-5.877-0.958-11.538-2.866-16.978c-1.764-5.291-4.266-9.773-7.496-13.449c-3.087-3.528-6.835-6.394-11.244-8.599c-4.559-2.056-9.481-3.087-14.773-3.087c-5.146,0-9.997,1.031-14.552,3.087c-4.705,2.353-8.525,5.292-11.464,8.82c-3.235,3.382-5.733,7.792-7.497,13.228c-1.764,5.147-2.646,10.804-2.646,16.978c0,6.47,0.955,12.274,2.867,17.418c1.764,5.292,4.262,9.776,7.496,13.449c2.939,3.677,6.688,6.614,11.244,8.819c4.555,2.06,9.405,3.087,14.552,3.087C356.146,158.429,360.995,157.401,365.554,155.342"></path>
                <path fill="#1C4278" d="M536.146,107.718c4.703,3.824,8.599,8.454,11.685,13.891c3.232,5.588,4.852,12.644,4.852,21.166c0,9.557-1.619,17.639-4.852,24.252c-3.233,6.764-7.716,12.423-13.448,16.978c-5.732,4.41-12.126,7.717-19.183,9.922c-3.526,1.178-7.093,1.984-10.692,2.426c-3.604,0.441-7.242,0.661-10.914,0.661c-10.583,0-21.021-1.909-31.309-5.733c-10.438-4.112-18.889-9.846-25.354-17.196c-0.882-0.883-1.323-1.947-1.323-3.197c0-1.247,0.441-2.388,1.323-3.417l22.488-23.813c0.882-1.026,2.057-1.544,3.527-1.544c1.468,0,2.646,0.59,3.528,1.765c3.087,3.969,7.2,7.275,12.347,9.922c5.144,2.794,10.066,4.188,14.772,4.188c1.175,0,2.276-0.072,3.307-0.221c1.027-0.144,2.057-0.365,3.087-0.661c2.057-0.44,3.672-1.103,4.852-1.984c1.025-0.882,1.907-1.984,2.646-3.308c0.44-0.733,0.733-1.543,0.881-2.425c0.146-0.882,0.222-1.836,0.222-2.866c0-2.057-0.369-3.527-1.103-4.41c-0.738-1.322-2.205-2.718-4.41-4.188c-2.06-1.175-4.851-2.498-8.379-3.969c-1.764-0.734-3.676-1.434-5.731-2.095c-2.061-0.66-4.266-1.357-6.614-2.095c-2.502-0.733-4.89-1.577-7.166-2.535c-2.281-0.954-4.521-2.019-6.726-3.196c-4.705-2.205-9.039-5.145-13.008-8.82c-3.676-3.672-6.763-8.23-9.26-13.669c-2.353-5.144-3.528-11.465-3.528-18.962c0-9.26,1.836-17.121,5.513-23.591c3.527-6.467,8.157-11.83,13.89-16.095c5.437-3.969,11.83-6.98,19.182-9.04c3.528-0.882,7.056-1.578,10.583-2.095c3.528-0.513,7.057-0.771,10.583-0.771c8.523,0,17.271,1.691,26.238,5.071c9.112,3.383,16.978,8.233,23.591,14.551c1.027,1.031,1.544,2.133,1.544,3.308c0,1.322-0.44,2.501-1.323,3.527L530.635,81.48c-1.03,1.178-2.281,1.692-3.748,1.543c-1.472,0-2.574-0.585-3.309-1.763c-2.645-3.232-5.952-5.878-9.921-7.938c-4.41-2.057-8.378-3.087-11.906-3.087c-2.06,0-4.045,0.221-5.952,0.662c-1.472,0.148-3.087,0.737-4.852,1.764c-1.471,1.03-2.573,2.132-3.307,3.307c-0.737,1.03-1.103,2.501-1.103,4.41c0,1.619,0.292,2.942,0.883,3.968c0.293,0.441,0.66,0.92,1.102,1.433c0.441,0.517,1.027,0.992,1.764,1.433c0.883,0.442,1.836,0.92,2.866,1.434c1.027,0.516,2.129,0.992,3.308,1.433c2.938,1.178,5.877,2.28,8.819,3.307c2.497,0.737,4.995,1.581,7.496,2.535c2.498,0.958,5.071,1.95,7.717,2.977c2.938,1.178,5.695,2.501,8.269,3.969C531.33,104.338,533.794,105.954,536.146,107.718"></path>
                <path fill="#1C4278" d="M690.045,38.375v31.53c0,1.644-1.332,2.976-2.977,2.976h-36.601c-0.182,0-0.33,0.148-0.33,0.33v121.155c0,0.677-0.217,1.257-0.648,1.743c-0.533,0.604-1.335,0.903-2.14,0.903h-36.678c-0.737,0-1.361-0.255-1.874-0.772c-0.518-0.513-0.772-1.137-0.772-1.874V73.211c0-0.182-0.147-0.33-0.33-0.33h-37.151c-1.619,0-2.426-0.882-2.426-2.646v-32.19c0-1.763,0.807-2.646,2.426-2.646h116.524C688.713,35.399,690.045,36.732,690.045,38.375"></path>
                <path fill="#FDB714" d="M235.791,197.078l-18.956,0.002c-12.848,0.001-23.265-10.414-23.266-23.263l-0.035-24.478l-0.276-55.538c0-10.568-2.364-22.933-8.615-22.31c-3.817-0.294-5.327,12.741-5.327,12.741c-8.109,46.595-9.696,79.378-20.478,91.908c-5.431,6.312-14.58,10.715-22.8,10.715c-14.971,0-24.647,0.015-24.647,0.015c-14.636,0.002-26.502-11.862-26.503-26.498l-0.005-49.145l-0.023,0.03c0,0,0.012-0.251,0.023-0.679v-3.255c-0.148-6.236-1.262-17.601-7.479-16.649c-5.484,0.163-9.227,35.99-11.41,51.597c-1.525,12.902-4.751,16.37-5.309,16.884c-3.529,4.769-11.378,8.869-17.767,8.869l-20.191,0.051c-12.934,0-22.658-11.566-22.658-22.825L0,107.546C0,94.258,10.537,83.56,22.727,83.56l20.191-0.002c19.401,0,12.376,15.259,19.633,13.492c1.768-0.838,2.434-3.477,3.027-5.908c0.862-3.533,1.939-9.989,4.474-20.897c6.829-24.186,19.018-32.467,31.825-33.903c8.66-1.325,26.989-0.665,26.989-0.665c19.155,0.807,21.737,12.15,21.738,26.786 l0.002,17.682c0.025,1.267,0.051,2.554,0.081,3.879c0.174,7.627,2.28,12.146,6.48,11.898s5.127-6.459,6.145-10.984c2.629-15.013,4.744-50.729,6.923-58.724c2.705-13.362,10.59-26.205,33.488-26.205c0-0.025,27.777,0.007,27.777,0.032c17.71-0.215,28.12,12.65,27.924,30.371l-0.371,143.398C259.055,186.66,248.64,197.077,235.791,197.078"></path>
                <path fill="#1C4278" d="M362.394,242.682c0-2.65-0.049-4.878-0.192-6.856h5.016l0.236,3.406h0.142c1.138-1.802,3.219-3.933,7.098-3.933c3.029,0,5.394,1.708,6.385,4.262h0.099c0.805-1.279,1.748-2.223,2.835-2.887c1.275-0.896,2.745-1.375,4.64-1.375c3.829,0,7.708,2.603,7.708,9.987v13.575h-5.679v-12.726c0-3.832-1.321-6.104-4.111-6.104c-1.989,0-3.459,1.42-4.069,3.079c-0.144,0.566-0.284,1.273-0.284,1.934v13.817h-5.678V245.52c0-3.216-1.277-5.488-3.974-5.488c-2.177,0-3.642,1.704-4.162,3.313c-0.238,0.569-0.335,1.231-0.335,1.893v13.625h-5.673V242.682z"></path>
                <path fill="#1C4278" d="M412.797,247.604c-4.118-0.099-8.043,0.802-8.043,4.303c0,2.268,1.467,3.312,3.313,3.312c2.313,0,4.021-1.513,4.541-3.173c0.139-0.422,0.189-0.896,0.189-1.276V247.604z M418.475,253.326c0,2.078,0.093,4.112,0.329,5.536h-5.254l-0.376-2.554h-0.144c-1.417,1.799-3.829,3.075-6.81,3.075c-4.639,0-7.235-3.356-7.235-6.862c0-5.823,5.15-8.748,13.668-8.7v-0.382c0-1.516-0.616-4.02-4.686-4.02c-2.271,0-4.635,0.71-6.198,1.701l-1.135-3.783c1.705-1.044,4.688-2.038,8.328-2.038c7.381,0,9.512,4.687,9.512,9.702V253.326z"></path>
                <path fill="#1C4278" d="M422.496,242.682c0-2.65-0.051-4.878-0.191-6.856h5.106l0.284,3.451h0.143c0.99-1.797,3.503-3.978,7.332-3.978c4.024,0,8.186,2.603,8.186,9.887v13.676h-5.818v-13.01c0-3.312-1.231-5.82-4.4-5.82c-2.316,0-3.929,1.657-4.544,3.409c-0.186,0.519-0.235,1.232-0.235,1.887v13.534h-5.861V242.682z"></path>
                <path fill="#1C4278" d="M462.763,245.422c0-0.466-0.045-1.037-0.14-1.51c-0.521-2.269-2.368-4.111-5.017-4.111c-3.737,0-5.817,3.309-5.817,7.614c0,4.21,2.08,7.284,5.77,7.284c2.366,0,4.447-1.606,5.017-4.112c0.143-0.523,0.188-1.095,0.188-1.709V245.422z M468.583,226.569v25.812c0,2.361,0.094,4.921,0.189,6.481h-5.205l-0.232-3.643h-0.098c-1.373,2.556-4.166,4.163-7.523,4.163c-5.488,0-9.836-4.684-9.836-11.778c-0.051-7.713,4.773-12.304,10.312-12.304c3.167,0,5.438,1.326,6.479,3.03h0.094v-11.762H468.583z"></path>
                <rect x="472.694" y="235.824" fill="#1C4278" width="5.869" height="23.037"></rect>
                <path fill="#1C4278" d="M482.682,243.251c0-3.121-0.051-5.35-0.192-7.426h5.063l0.185,4.395h0.195c1.135-3.263,3.833-4.395,6.292-4.395c0.566,0,0.896-0.1,1.373,0v5.107c-0.478-0.094-0.993-0.186-1.705-0.186c-2.788,0-4.683,1.794-5.205,4.396c-0.091,0.519-0.187,1.134-0.187,1.8v11.919h-5.818V243.251z"></path>
                <rect x="498.296" y="235.824" fill="#1C4278" width="5.86" height="23.037"></rect>
                <path fill="#1C4278" d="M514.593,255.633c1.13,0.699,2.833,1.44,4.705,1.44c3.313,0,4.883-1.788,4.883-3.964c0-2.312-1.394-3.531-4.402-4.754c-3.444-1.307-5.315-3.18-5.315-5.708c0-3.008,2.352-5.666,6.45-5.666c1.915,0,3.53,0.567,4.617,1.31l-0.825,1.693c-0.697-0.518-2.05-1.262-4.143-1.262c-2.658,0-4.052,1.702-4.052,3.618c0,2.182,1.482,3.139,4.314,4.316c3.4,1.308,5.404,3.006,5.404,6.188c0,3.573-2.791,6.012-7.063,6.012c-2.049,0-3.921-0.609-5.314-1.479L514.593,255.633z"></path>
                <path fill="#1C4278" d="M544.057,246.047c0.043-2.921-1.178-7.368-6.233-7.368c-4.619,0-6.626,4.142-6.973,7.368H544.057zM530.717,247.703c0,6.71,3.662,9.325,7.977,9.325c3.05,0,4.621-0.61,5.797-1.174l0.524,1.655c-0.785,0.435-2.921,1.352-6.583,1.352c-6.016,0-9.763-4.402-9.763-10.547c0-6.974,4.012-11.332,9.416-11.332c6.841,0,8.15,6.449,8.15,9.457c0,0.564,0,0.914-0.086,1.264H530.717z"></path>
                <path fill="#1C4278" d="M552.291,247.526h0.088c0.523-0.653,1.396-1.611,2.05-2.309l7.364-7.759h2.529l-8.456,8.676l9.631,12.246h-2.525l-8.543-10.982l-2.138,2.266v8.717h-2.047v-27.248h2.047V247.526z"></path>
                <path fill="#1C4278" d="M583.456,253.28c0,1.834,0.086,3.487,0.172,5.101h-1.918l-0.131-3.704h-0.087c-1.044,1.916-3.444,4.181-7.189,4.181c-2.658,0-7.105-1.305-7.105-9.235V237.46h2.049v11.769c0,4.533,1.439,7.8,5.578,7.8c3.052,0,5.273-2.134,6.146-4.225c0.218-0.655,0.436-1.482,0.436-2.31V237.46h2.05V253.28z"></path>
                <path fill="#1C4278" d="M589.207,243.736c0-2.09-0.086-4.27-0.175-6.278h1.918l0.089,4.233h0.088c0.915-2.619,3.094-4.71,5.97-4.71c0.261,0,0.568,0.043,0.827,0.088v2.003c-0.303-0.085-0.609-0.085-1.002-0.085c-2.876,0-4.923,2.481-5.49,5.839c-0.086,0.61-0.175,1.31-0.175,2.003v11.553h-2.05V243.736z"></path>
                <rect x="600.758" y="237.459" fill="#1C4278" width="2.048" height="20.921"></rect>
                <path fill="#1C4278" d="M611.436,232.84v4.621h5.974v1.656h-5.974v13.598c0,2.66,0.828,4.357,3.049,4.357c1.091,0,1.877-0.172,2.401-0.349l0.261,1.613c-0.699,0.304-1.657,0.521-2.921,0.521c-1.526,0-2.79-0.521-3.575-1.521c-0.958-1.09-1.306-2.835-1.306-4.97v-13.25h-3.532v-1.656h3.532v-3.835L611.436,232.84z"></path>
                <path fill="#1C4278" d="M631.658,247.179c-4.577-0.131-10.589,0.569-10.589,5.58c0,3.007,2.003,4.357,4.184,4.357c3.485,0,5.447-2.134,6.188-4.184c0.133-0.436,0.218-0.871,0.218-1.264V247.179z M633.708,253.414c0,1.654,0.086,3.354,0.307,4.967h-1.876l-0.306-3.008h-0.13c-1.003,1.613-3.312,3.484-6.671,3.484c-4.182,0-6.14-2.962-6.14-5.749c0-4.838,4.269-7.762,12.766-7.673v-0.522c0-2.093-0.389-6.232-5.359-6.189c-1.831,0-3.747,0.479-5.229,1.567l-0.657-1.522c1.875-1.264,4.232-1.786,6.104-1.786c6.058,0,7.191,4.531,7.191,8.281V253.414z"></path>
                <path fill="#1C4278" d="M638.327,255.633c1.133,0.699,2.833,1.44,4.708,1.44c3.312,0,4.882-1.788,4.882-3.964c0-2.312-1.396-3.531-4.403-4.754c-3.443-1.307-5.315-3.18-5.315-5.708c0-3.008,2.353-5.666,6.451-5.666c1.915,0,3.528,0.567,4.619,1.31l-0.828,1.693c-0.7-0.518-2.051-1.262-4.144-1.262c-2.655,0-4.05,1.702-4.05,3.618c0,2.182,1.48,3.139,4.315,4.316c3.397,1.308,5.402,3.006,5.402,6.188c0,3.573-2.792,6.012-7.062,6.012c-2.047,0-3.92-0.609-5.316-1.479L638.327,255.633z"></path>
                <path fill="#3698D4" d="M314.917,235.242c-3.7,0-6.357,1.661-7.827,4.223h-0.096v-14.421h-4.127v27.751c0,2.04-0.094,4.364-0.189,5.929h3.604l0.19-3.794h0.144c1.707,3.036,4.365,4.314,7.684,4.314c5.125,0,10.294-4.078,10.294-12.283C324.64,239.987,320.607,235.242,314.917,235.242 M313.447,255.926c-3.039,0-5.455-1.992-6.263-4.887c-0.095-0.475-0.19-0.995-0.19-1.518v-4.128c0-0.663,0.144-1.233,0.238-1.707c0.852-3.178,3.51-5.123,6.357-5.123c4.459,0,6.828,3.938,6.828,8.538C320.418,252.366,317.813,255.926,313.447,255.926"></path>
                <path fill="#3698D4" d="M339.109,249.236c-0.567,1.66-1.043,3.416-1.471,4.792h-0.095c-0.38-1.376-0.947-3.179-1.47-4.697l-5.029-13.566h-4.553l8.49,21.157c0.189,0.521,0.285,0.853,0.285,1.091c0,0.236-0.144,0.568-0.334,0.996c-0.947,2.135-2.369,3.747-3.509,4.648c-1.231,1.044-2.61,1.707-3.651,2.04l1.041,3.511c1.045-0.19,3.086-0.901,5.125-2.705c2.844-2.466,4.885-6.498,7.875-14.372l6.262-16.366h-4.412L339.109,249.236z"></path>
	            </g>
                </svg>