<svg version="1.1" id="MOST_LOGO" xmlns="http://www.w3.org/2000/svg" xmlns:xlink="http://www.w3.org/1999/xlink" x="0px" y="0px" viewBox="0 -1 260 199" enable-background="new 0 -5 260 200" xml:space="preserve">
  <path fill="#FDB714" d="M235.791,197.078l-18.956,0.002c-12.848,0.001-23.265-10.414-23.266-23.263l-0.035-24.478l-0.276-55.538c0-10.568-2.364-22.933-8.615-22.31c-3.817-0.294-5.327,12.741-5.327,12.741c-8.109,46.595-9.696,79.378-20.478,91.908c-5.431,6.312-14.58,10.715-22.8,10.715c-14.971,0-24.647,0.015-24.647,0.015c-14.636,0.002-26.502-11.862-26.503-26.498l-0.005-49.145l-0.023,0.03c0,0,0.012-0.251,0.023-0.679v-3.255c-0.148-6.236-1.262-17.601-7.479-16.649c-5.484,0.163-9.227,35.99-11.41,51.597c-1.525,12.902-4.751,16.37-5.309,16.884c-3.529,4.769-11.378,8.869-17.767,8.869l-20.191,0.051c-12.934,0-22.658-11.566-22.658-22.825L0,107.546C0,94.258,10.537,83.56,22.727,83.56l20.191-0.002c19.401,0,12.376,15.259,19.633,13.492c1.768-0.838,2.434-3.477,3.027-5.908c0.862-3.533,1.939-9.989,4.474-20.897c6.829-24.186,19.018-32.467,31.825-33.903c8.66-1.325,26.989-0.665,26.989-0.665c19.155,0.807,21.737,12.15,21.738,26.786 l0.002,17.682c0.025,1.267,0.051,2.554,0.081,3.879c0.174,7.627,2.28,12.146,6.48,11.898s5.127-6.459,6.145-10.984c2.629-15.013,4.744-50.729,6.923-58.724c2.705-13.362,10.59-26.205,33.488-26.205c0-0.025,27.777,0.007,27.777,0.032c17.71-0.215,28.12,12.65,27.924,30.371l-0.371,143.398C259.055,186.66,248.64,197.077,235.791,197.078"></path>
</svg>