<svg xmlns="http://www.w3.org/2000/svg" width="16.489" height="16.488" viewBox="0 0 16.489 16.488"><defs><style>.a{fill:#e51e25;}</style></defs><g transform="translate(0.001 -0.005)"><path class="a" d="M.467,14.2l1.712,1.737a1.625,1.625,0,0,0,2.3.017l3.738-3.685L11.9,16.009a1.625,1.625,0,0,0,2.3.016l1.736-1.711a1.625,1.625,0,0,0,.016-2.3L12.266,8.279,16,4.594a1.625,1.625,0,0,0,.016-2.3L14.309.558a1.626,1.626,0,0,0-2.3-.017L8.272,4.227,4.588.489a1.626,1.626,0,0,0-2.3-.017L.554,2.184a1.626,1.626,0,0,0-.017,2.3L4.221,8.22.484,11.906A1.625,1.625,0,0,0,.467,14.2Z" transform="translate(0 0)"/></g></svg>